<svg width="214" height="214" viewBox="0 0 214 214" fill="none" xmlns="http://www.w3.org/2000/svg">
<rect width="214" height="214" rx="50" fill="black"/>
<path d="M53.0909 102.636V42.6364H63.2727V102.636H53.0909ZM28.1818 77.7273V67.5454H88.1818V77.7273H28.1818Z" fill="white"/>
<path d="M88 155V165H28V155H88Z" fill="white"/>
<path d="M157.509 95.3137V91.4639C157.509 88.8023 158.058 86.3664 159.155 84.1564C160.277 81.9225 161.899 80.1402 164.023 78.8094C166.171 77.4548 168.772 76.7776 171.826 76.7776C174.928 76.7776 177.529 77.4548 179.629 78.8094C181.729 80.1402 183.316 81.9225 184.389 84.1564C185.463 86.3664 186 88.8023 186 91.4639V95.3137C186 97.9753 185.451 100.423 184.354 102.657C183.28 104.867 181.681 106.649 179.557 108.004C177.457 109.335 174.88 110 171.826 110C168.724 110 166.111 109.335 163.987 108.004C161.864 106.649 160.253 104.867 159.155 102.657C158.058 100.423 157.509 97.9753 157.509 95.3137ZM164.811 91.4639V95.3137C164.811 97.5238 165.336 99.5081 166.385 101.267C167.435 103.001 169.249 103.869 171.826 103.869C174.332 103.869 176.097 103.001 177.123 101.267C178.173 99.5081 178.698 97.5238 178.698 95.3137V91.4639C178.698 89.2538 178.197 87.2814 177.195 85.5466C176.193 83.788 174.403 82.9087 171.826 82.9087C169.32 82.9087 167.519 83.788 166.421 85.5466C165.347 87.2814 164.811 89.2538 164.811 91.4639ZM121 53.5361V49.6863C121 47.0247 121.549 44.5889 122.646 42.3788C123.768 40.145 125.391 38.3626 127.514 37.0318C129.662 35.6773 132.263 35 135.317 35C138.419 35 141.02 35.6773 143.12 37.0318C145.22 38.3626 146.807 40.145 147.881 42.3788C148.954 44.5889 149.491 47.0247 149.491 49.6863V53.5361C149.491 56.1977 148.942 58.6454 147.845 60.8793C146.771 63.0894 145.172 64.8717 143.048 66.2262C140.949 67.557 138.372 68.2224 135.317 68.2224C132.215 68.2224 129.602 67.557 127.479 66.2262C125.355 64.8717 123.744 63.0894 122.646 60.8793C121.549 58.6454 121 56.1977 121 53.5361ZM128.302 49.6863V53.5361C128.302 55.7462 128.827 57.7305 129.877 59.4891C130.927 61.2239 132.74 62.0913 135.317 62.0913C137.823 62.0913 139.588 61.2239 140.615 59.4891C141.664 57.7305 142.189 55.7462 142.189 53.5361V49.6863C142.189 47.4762 141.688 45.5038 140.686 43.769C139.684 42.0105 137.894 41.1312 135.317 41.1312C132.812 41.1312 131.01 42.0105 129.912 43.769C128.839 45.5038 128.302 47.4762 128.302 49.6863ZM123.72 109.002L174.117 35.9981H182.278L131.881 109.002H123.72Z" fill="white"/>
<path d="M126 151.818V142H182V151.818H126ZM126 178.727V168.909H182V178.727H126Z" fill="white"/>
</svg>
